<svg xmlns="http://www.w3.org/2000/svg" width="103" height="103" viewBox="0 0 102.99999 103" preserveAspectRatio="xMinYMid meet" overflow="visible">
  <linearGradient id="a" gradientUnits="userSpaceOnUse" x1="15.5879" y1="31.877001" x2="41.848598" y2="31.877001" gradientTransform="matrix(1.26933 0 0 1.26933 .846 -16.955)">
    <stop offset="0" stop-color="#929497"/>
    <stop offset=".1245" stop-color="#757578"/>
    <stop offset=".2792" stop-color="#575658"/>
    <stop offset=".4403" stop-color="#403E3F"/>
    <stop offset=".6085" stop-color="#302D2E"/>
    <stop offset=".7884" stop-color="#262223"/>
    <stop offset="1" stop-color="#231F20"/>
  </linearGradient>
  <linearGradient id="b" gradientUnits="userSpaceOnUse" x1="20.6187" y1="23.1113" x2="31.5222" y2="38.683201" gradientTransform="matrix(1.26933 0 0 1.26933 .846 -16.955)">
    <stop offset="0" stop-color="#231F20"/>
    <stop offset="1" stop-color="#231F20" stop-opacity="0"/>
  </linearGradient>
  <linearGradient id="c" gradientUnits="userSpaceOnUse" x1="1.1670001" y1="23.5879" x2="49.166" y2="23.5879" gradientTransform="matrix(1.26933 0 0 1.26933 .846 -16.955)">
    <stop offset="0" stop-color="#929497"/>
    <stop offset=".1245" stop-color="#757578"/>
    <stop offset=".2792" stop-color="#575658"/>
    <stop offset=".4403" stop-color="#403E3F"/>
    <stop offset=".6085" stop-color="#302D2E"/>
    <stop offset=".7884" stop-color="#262223"/>
    <stop offset="1" stop-color="#231F20"/>
  </linearGradient>
  <rect width="76.114708" height="76.114708" x="13.442645" y="13.442645" ry="5.3568497" fill="#f47e29" stroke="#f47e29" stroke-width="26.88529015" stroke-linejoin="round" paint-order="markers stroke fill"/>
  <g transform="translate(.33 15.81)">
    <path d="M22.043724 23.917481c-.507733 2.538667-1.015466 5.077334-1.5232 7.616 13.962667 4.696533 27.163733.126933 34.145067-12.058666-10.2816-7.108267-19.8016.126933-32.621867 4.442666" fill="#58595b"/>
    <path fill="#383738" stroke="#4a4a4c" stroke-width=".63466668" d="M63.297047 3.4812143L39.306652 20.871077"/>
    <path d="M34.737057 12.747348c.253867 2.792533-.3808-2.6656 0 0" opacity=".23000004" fill="#231f20"/>
    <path fill="#fff" stroke="#a8abad" stroke-width=".63466668" d="M2.3690572 22.013481l36.9375948-1.142404"/>
    <path d="M80.052257 65.805482V36.864681c0-6.0928-2.538666-9.1392-7.489066-9.1392s-7.489067 3.0464-7.489067 9.1392v28.940801h-14.8512V36.864681c0-6.0928-2.411733-9.1392-7.362133-9.1392s-7.489067 3.0464-7.489067 9.1392v28.940801H20.647458V35.214548c0-6.346667 2.157866-11.0432 6.600533-14.343467 3.808-2.919466 9.1392-4.315733 15.6128-4.315733 6.727466 0 11.550933 1.650133 14.724266 5.077333 2.6656-3.4272 7.616-5.077333 14.8512-5.077333 6.600534 0 11.8048 1.396267 15.6128 4.315733 4.442667 3.300267 6.600534 7.9968 6.600534 14.343467v30.717868H80.052257z" fill="#fdffff"/>
    <path d="M22.043724 22.013481c-.507733 2.919467-.888533 5.712-1.396266 8.631467 13.327999 4.5696 26.402133.634666 33.383466-11.297067-8.885333-10.2816-18.786133-1.777066-31.9872 2.6656" fill="url(#a)"/>
    <path d="M37.910391 25.440681c-6.0928-1.269333-12.693333 1.904-17.262933 5.204267C17.727993 9.3201477 30.929057 9.8278811 48.191991 15.159081c-1.1424 5.204267-3.0464 12.1856-6.346667 16.3744-.126933-2.792533-1.396267-4.696533-3.934933-6.0928" fill="url(#b)"/>
    <path d="M2.3690597 22.013481C24.709324 8.5585477 37.275724 6.019881 63.297057 3.354281c-30.210133 23.863467-30.971733 18.6592-60.9279973 18.6592" fill="url(#c)"/>
    <path d="M32.452257 13.001214c-6.346666 1.777067-27.1637295 6.346667-27.4175961 9.012267-.6346667 4.9504-.1269334 12.820267-.1269334 12.820267" fill="none" stroke="#fffffd" stroke-width=".63466668"/>
    <path d="M6.8117275 53.746816c-2.2848-5.712-5.0773344-12.058667-1.7770666-19.928535 2.1578666 7.362135 1.7770666 12.947201 1.7770666 19.928535" fill="#fff"/>
    <ellipse ry=".50773114" rx="1.0154623" cy="22.478498" cx="25.506926" transform="rotate(-19.61)" fill="#6d6e70"/>
  </g>
</svg>
