<svg id="Layer_1" width="103" height="103" data-name="Layer 1" xmlns="http://www.w3.org/2000/svg" viewBox="0 0 103 103" preserveAspectRatio="xMinYMid meet" overflow="visible"><defs><style>.cls-1{fill:#333}.cls-1,.cls-2{stroke-width:0}.cls-3{fill:#f47e29;stroke:#f47e29;stroke-linejoin:round;stroke-width:26.9px}.cls-2{fill:#fff}</style></defs><rect class="cls-3" x="13.4" y="13.4" width="76.1" height="76.1" rx="5.4" ry="5.4"/><path class="cls-2" d="M80.1 81.5V52.6c0-6-2.5-9.1-7.5-9.1s-7.5 3-7.5 9.1v28.9H50.4V52.6c0-6-2.5-9.1-7.4-9.1-5 0-7.5 3-7.5 9.1v28.9H20.8V50.9c0-6.3 2.2-11.1 6.6-14.3 3.9-2.9 9.1-4.3 15.6-4.3 6.7 0 11.6 1.7 14.7 5.1 2.7-3.4 7.7-5.1 14.9-5.1 6.6 0 11.8 1.4 15.6 4.3 4.4 3.2 6.6 8 6.6 14.3v30.6H80.1z"/><path class="cls-1" d="M49.3 30.1L64 19.4l-.2-.7c-24.9 2.6-39.5 5.9-61.1 18.7l.2.6h2.2c-.6 4.8-.2 11-.2 11v1.7c-2.6 7.4 0 13.3 2.3 18.7 0-6.7.3-12.1-1.6-19 0-1-.4-8 .1-12.5h2.8c4.1 0 8.3.2 12.3.3-.2 2.6 0 5.3.3 7.9v.9c13.8 4.7 27 .4 33.9-11.8l-.4-.6c-1.1-1.3-3.4-3.1-5.4-4.5z"/></svg>
